<?xml version="1.0" standalone="no"?>
<!DOCTYPE svg PUBLIC "-//W3C//DTD SVG 20010904//EN"
 "http://www.w3.org/TR/2001/REC-SVG-20010904/DTD/svg10.dtd">
<svg version="1.0" xmlns="http://www.w3.org/2000/svg"
 width="228.000000pt" height="228.000000pt" viewBox="0 0 228.000000 228.000000"
 preserveAspectRatio="xMidYMid meet">

<g transform="translate(0.000000,228.000000) scale(0.100000,-0.100000)"
fill="#000000" stroke="none">
<path d="M0 1140 l0 -1140 1140 0 1140 0 0 1140 0 1140 -1140 0 -1140 0 0
-1140z m1298 694 c245 -52 452 -254 523 -509 38 -139 31 -275 -26 -462 -7 -21
-4 -23 28 -23 73 0 122 -76 93 -144 -35 -83 -145 -91 -191 -14 l-18 31 -35
-42 c-119 -144 -336 -241 -536 -241 -125 0 -214 21 -326 76 -79 39 -110 62
-181 133 -71 71 -94 102 -133 181 -25 52 -53 127 -61 165 -19 90 -19 221 0
310 8 38 15 84 15 102 0 23 16 53 58 110 109 146 225 242 380 316 66 32 68 32
202 29 74 -1 168 -10 208 -18z"/>
<path d="M1037 1734 c-12 -4 -16 -12 -12 -23 5 -16 -3 -19 -52 -25 -75 -8
-138 -45 -237 -137 -91 -85 -163 -181 -182 -245 -66 -219 24 -494 208 -633
107 -81 252 -131 375 -131 217 1 436 141 531 340 47 99 62 163 62 263 -1 259
-162 478 -420 569 -54 19 -233 33 -273 22z m188 -383 c114 -52 168 -193 116
-307 -77 -169 -328 -176 -413 -10 -33 64 -35 134 -5 198 53 117 190 171 302
119z"/>
<path d="M1073 1231 c-45 -28 -61 -85 -38 -134 16 -35 64 -67 100 -67 52 0
105 60 105 119 0 75 -100 124 -167 82z"/>
</g>
</svg>
